<?xml version="1.0" encoding="iso-8859-1"?>
<!-- Generator: Adobe Illustrator 19.0.0, SVG Export Plug-In . SVG Version: 6.00 Build 0)  -->
<svg version="1.1" id="Capa_1" xmlns="http://www.w3.org/2000/svg" xmlns:xlink="http://www.w3.org/1999/xlink" x="0px" y="0px"
	 viewBox="0 0 512 512" style="enable-background:new 0 0 512 512;" xml:space="preserve">
<g>
	<polygon style="fill:#00459F;" points="328.33,0 328.33,73 298.33,73 298.33,30 213.67,30 213.67,73 183.67,73 183.67,0 	"/>
	<rect x="91.92" y="142" style="fill:#00459F;" width="328.16" height="370"/>
</g>
<g>
	<polygon style="fill:#002D6B;" points="298.33,30 256,30 256,0 328.33,0 328.33,73 298.33,73 	"/>
	<rect x="256" y="142" style="fill:#002D6B;" width="164.08" height="370"/>
</g>
<rect x="71.7" y="58" style="fill:#84CAFF;" width="368.6" height="114"/>
<g>
	<rect x="169" y="252" style="fill:#AEADB3;" width="30" height="184"/>
	<rect x="241" y="252" style="fill:#AEADB3;" width="30" height="184"/>
	<rect x="313" y="252" style="fill:#AEADB3;" width="30" height="184"/>
</g>
<g>
	<rect x="256" y="252" style="fill:#78777F;" width="15" height="184"/>
	<rect x="313" y="252" style="fill:#78777F;" width="30" height="184"/>
</g>
<rect x="256" y="58" style="fill:#00A6FF;" width="184.3" height="114"/>
<g>
</g>
<g>
</g>
<g>
</g>
<g>
</g>
<g>
</g>
<g>
</g>
<g>
</g>
<g>
</g>
<g>
</g>
<g>
</g>
<g>
</g>
<g>
</g>
<g>
</g>
<g>
</g>
<g>
</g>
</svg>
